<?xml version="1.0" encoding="utf-8"?>
<!-- Generator: Adobe Illustrator 22.0.1, SVG Export Plug-In . SVG Version: 6.00 Build 0)  -->
<svg version="1.1" id="Layer_1" xmlns="http://www.w3.org/2000/svg" xmlns:xlink="http://www.w3.org/1999/xlink" x="0px" y="0px"
	 viewBox="0 0 381.4 122.2" style="enable-background:new 0 0 381.4 122.2;" xml:space="preserve">
<style type="text/css">
	.st0{fill:#31469D;}
</style>
<g>
	<path class="st0" d="M303.6,48c-0.5-1.4-1.4-2.7-2.4-3.7c-1.1-1-2.3-1.8-3.7-2.4c-1.4-0.6-2.8-0.9-4.4-0.9c-1.6,0-3.1,0.3-4.5,0.9
		c-1.4,0.5-2.7,1.4-3.7,2.4c-1,1.1-1.8,2.3-2.4,3.7c-0.6,1.4-0.9,2.8-0.9,4.4c0,1.6,0.3,3.1,0.9,4.4c0.5,1.4,1.4,2.7,2.4,3.7
		c1.1,1,2.3,1.8,3.7,2.4c1.5,0.6,2.9,0.9,4.5,0.9c1.5,0,3-0.3,4.4-0.9c1.4-0.5,2.7-1.4,3.7-2.4c1-1.1,1.8-2.3,2.4-3.7
		c0.6-1.4,0.9-2.8,0.9-4.4C304.5,50.9,304.2,49.4,303.6,48z"/>
	<rect x="94.9" y="62.2" class="st0" width="163.3" height="19"/>
</g>
</svg>
