<?xml version="1.0" encoding="utf-8"?>
<!-- Generator: Adobe Illustrator 22.0.1, SVG Export Plug-In . SVG Version: 6.00 Build 0)  -->
<svg version="1.1" id="Layer_1" xmlns="http://www.w3.org/2000/svg" xmlns:xlink="http://www.w3.org/1999/xlink" x="0px" y="0px"
	 viewBox="0 0 380.2 73" style="enable-background:new 0 0 380.2 73;" xml:space="preserve">
<style type="text/css">
	.st0{fill:#31469D;}
</style>
<path class="st0" d="M338.7,20.7c0-2.8,0.5-5.5,1.6-8.1c1.1-2.5,2.5-4.8,4.4-6.7c1.9-1.9,4.1-3.4,6.6-4.4c2.5-1.1,5.2-1.6,8.1-1.6
	c2.8,0,5.5,0.5,8.1,1.6c2.5,1.1,4.8,2.5,6.6,4.4c1.9,1.9,3.4,4.1,4.4,6.7c1.1,2.5,1.6,5.2,1.6,8.1c0,2.8-0.5,5.5-1.6,8.1
	c-1.1,2.5-2.5,4.8-4.4,6.7c-1.9,1.9-4.1,3.4-6.6,4.4c-2.5,1.1-5.2,1.6-8.1,1.6c-2.8,0-5.5-0.5-8.1-1.6c-2.5-1.1-4.8-2.5-6.6-4.4
	c-1.9-1.9-3.4-4.1-4.4-6.7C339.2,26.3,338.7,23.6,338.7,20.7"/>
<rect y="38.5" class="st0" width="296.3" height="34.5"/>
</svg>
